<?xml version="1.0" encoding="utf-8"?>
<!-- Generator: Adobe Illustrator 22.1.0, SVG Export Plug-In . SVG Version: 6.00 Build 0)  -->
<svg version="1.1" id="Layer_1" xmlns="http://www.w3.org/2000/svg" xmlns:xlink="http://www.w3.org/1999/xlink" x="0px" y="0px"
	 viewBox="0 0 297 62.372" style="enable-background:new 0 0 297 62.372;" xml:space="preserve">
<style type="text/css">
	.st0{fill:#231F20;}
	.st1{fill:#0078A9;}
	.st2{fill:#004B8D;}
</style>
<g>
	<g>
		<path class="st0" d="M234.349,29.838c0.45,0,0.853-0.032,0.853-0.574c0-0.433-0.396-0.514-0.765-0.514h-0.724v1.087H234.349z
			 M233.713,31.815h-0.533v-3.516h1.335c0.834,0,1.243,0.307,1.243,1.001c0,0.626-0.392,0.902-0.911,0.966l1.001,1.549h-0.598
			l-0.93-1.524h-0.607V31.815z M234.358,32.597c1.376,0,2.466-1.08,2.466-2.548c0-1.442-1.089-2.531-2.466-2.531
			c-1.397,0-2.482,1.089-2.482,2.531C231.876,31.517,232.961,32.597,234.358,32.597 M231.261,30.048
			c0-1.749,1.417-3.039,3.097-3.039c1.658,0,3.079,1.29,3.079,3.039c0,1.766-1.421,3.054-3.079,3.054
			C232.678,33.103,231.261,31.815,231.261,30.048"/>
	</g>
	<polygon class="st1" points="274.71,32.833 279.752,29.411 262.903,29.885 267.077,32.615 	"/>
	<polygon class="st1" points="256.771,25.869 260.139,28.073 280.85,28.661 286.19,25.035 	"/>
	<polygon class="st1" points="252.7,12.176 249.728,14.123 293.455,15.364 245.762,16.718 244.273,17.693 245.762,18.664 
		293.455,20.018 249.724,21.261 253.446,23.695 286.774,24.64 297,17.693 287.434,11.19 	"/>
	<polygon class="st1" points="286.904,10.834 281.511,7.169 259.396,7.795 256.088,9.957 	"/>
	<polygon class="st1" points="269.269,34.05 271.127,35.269 273.076,33.943 	"/>
	<polygon class="st1" points="262.226,5.941 280.468,6.459 275.366,2.998 266.332,3.254 	"/>
	<polygon class="st1" points="268.589,1.776 273.792,1.923 271.128,0.115 	"/>
	<g>
		<path class="st0" d="M35.197,27.308c8.263,0,19.896-2.169,19.896-10.896S43.461,5.514,35.197,5.514S15.306,7.686,15.306,16.412
			S26.934,27.308,35.197,27.308 M35.197,0c9.694,0,35.197,1.781,35.197,16.412S44.891,32.824,35.197,32.824
			C25.507,32.824,0,31.042,0,16.412S25.507,0,35.197,0"/>
		<path class="st0" d="M115.695,15.369c11.426,0,11.426-3.472,11.426-4.862c0-3.039-3.979-4.299-13.468-4.299h-12.139v9.161H115.695
			z M101.514,31.999H86.208V0.825h33.467c14.177,0,22.748,3.864,22.748,9.986c0,2.822-3.669,9.941-23.363,9.941h-17.546V31.999z"/>
		<path class="st0" d="M151.709,0.825h16.324c9.384,17.062,10.303,19.234,11.629,22.794h0.206
			c1.324-3.255,2.449-6.427,10.198-22.794h16.224c8.569,17.106,9.283,18.756,10.916,22.794h0.204
			c1.226-2.953,2.449-5.644,11.934-22.794h15.51l-20.61,31.174h-14.691c-7.549-15.283-8.876-18.322-11.325-24.313h-0.202
			c-2.244,5.991-3.471,8.248-11.325,24.313h-14.284L151.709,0.825z"/>
	</g>
</g>
<g>
	<g>
		<path class="st0" d="M69.147,48.761c0.202-0.417,0.476-0.762,0.827-1.029c0.347-0.264,0.756-0.463,1.226-0.59
			c0.472-0.127,0.992-0.192,1.567-0.192c0.429,0,0.859,0.043,1.288,0.127c0.431,0.08,0.819,0.237,1.167,0.465
			c0.343,0.229,0.619,0.547,0.837,0.964c0.214,0.412,0.327,0.947,0.327,1.604v5.222c0,0.483,0.23,0.721,0.698,0.721
			c0.143,0,0.27-0.022,0.383-0.074v1.008c-0.139,0.029-0.262,0.046-0.369,0.058c-0.111,0.012-0.244,0.02-0.411,0.02
			c-0.3,0-0.546-0.038-0.734-0.126c-0.183-0.083-0.325-0.198-0.425-0.351c-0.105-0.153-0.169-0.334-0.202-0.544
			c-0.032-0.208-0.048-0.44-0.048-0.696H75.24c-0.218,0.323-0.435,0.602-0.657,0.851c-0.222,0.245-0.472,0.452-0.742,0.616
			c-0.274,0.166-0.585,0.293-0.936,0.384c-0.351,0.086-0.762,0.131-1.246,0.131c-0.46,0-0.887-0.051-1.286-0.161
			c-0.399-0.108-0.75-0.28-1.048-0.516c-0.299-0.232-0.53-0.532-0.704-0.893c-0.171-0.361-0.254-0.789-0.254-1.288
			c0-0.681,0.151-1.217,0.454-1.608c0.305-0.387,0.71-0.681,1.212-0.884c0.498-0.204,1.067-0.345,1.694-0.426
			c0.627-0.087,1.266-0.162,1.911-0.24c0.256-0.025,0.478-0.058,0.67-0.097c0.187-0.037,0.349-0.105,0.478-0.2
			c0.125-0.092,0.222-0.226,0.29-0.389c0.071-0.165,0.105-0.38,0.105-0.646c0-0.411-0.064-0.742-0.198-1.001
			c-0.133-0.26-0.316-0.467-0.548-0.616c-0.24-0.157-0.512-0.259-0.825-0.319c-0.309-0.057-0.643-0.083-0.998-0.083
			c-0.762,0-1.383,0.181-1.867,0.542c-0.48,0.36-0.738,0.941-0.762,1.742h-1.199C68.82,49.676,68.941,49.179,69.147,48.761
			 M75.143,51.694c-0.077,0.139-0.226,0.243-0.44,0.303c-0.218,0.062-0.405,0.111-0.569,0.133c-0.51,0.09-1.032,0.174-1.573,0.241
			c-0.544,0.069-1.028,0.174-1.476,0.313c-0.444,0.138-0.811,0.338-1.093,0.599c-0.29,0.261-0.431,0.631-0.431,1.114
			c0,0.303,0.06,0.575,0.184,0.808c0.119,0.239,0.28,0.441,0.486,0.61c0.2,0.173,0.44,0.305,0.702,0.392
			c0.266,0.09,0.54,0.131,0.818,0.131c0.456,0,0.897-0.071,1.315-0.209c0.421-0.137,0.786-0.342,1.099-0.609
			c0.308-0.264,0.554-0.589,0.742-0.971c0.183-0.38,0.272-0.814,0.272-1.296v-1.561H75.143z"/>
	</g>
	<g>
		<path class="st0" d="M157.856,48.547c-0.444-0.418-1.064-0.627-1.863-0.627c-0.575,0-1.076,0.12-1.508,0.363
			c-0.431,0.238-0.792,0.555-1.077,0.952c-0.286,0.391-0.504,0.839-0.645,1.343c-0.145,0.501-0.222,1.011-0.222,1.533
			c0,0.519,0.077,1.031,0.222,1.53c0.141,0.503,0.359,0.949,0.645,1.344c0.284,0.393,0.645,0.714,1.077,0.952
			c0.431,0.241,0.933,0.361,1.508,0.361c0.367,0,0.714-0.071,1.042-0.211c0.333-0.137,0.627-0.331,0.877-0.578
			c0.256-0.247,0.466-0.541,0.629-0.885c0.165-0.343,0.27-0.719,0.306-1.127h1.2c-0.167,1.198-0.607,2.127-1.317,2.79
			c-0.712,0.666-1.625,0.999-2.738,0.999c-0.754,0-1.417-0.135-1.992-0.408c-0.577-0.27-1.063-0.64-1.46-1.113
			c-0.395-0.471-0.69-1.019-0.895-1.647c-0.202-0.63-0.302-1.299-0.302-2.007c0-0.715,0.101-1.381,0.302-2.011
			c0.206-0.628,0.5-1.18,0.895-1.647c0.397-0.469,0.883-0.845,1.46-1.121c0.575-0.281,1.238-0.425,1.992-0.425
			c1.048,0,1.94,0.285,2.674,0.842c0.73,0.558,1.163,1.402,1.302,2.532h-1.199C158.602,49.546,158.299,48.968,157.856,48.547"/>
		<path class="st0" d="M168.199,47.329c0.581,0.278,1.065,0.655,1.458,1.125c0.391,0.467,0.692,1.018,0.893,1.646
			c0.202,0.627,0.305,1.297,0.305,2.009c0,0.711-0.103,1.378-0.305,2.01c-0.202,0.626-0.502,1.173-0.893,1.647
			c-0.393,0.47-0.877,0.843-1.458,1.113c-0.577,0.271-1.244,0.408-1.992,0.408c-0.75,0-1.411-0.137-1.986-0.408
			c-0.581-0.27-1.063-0.643-1.458-1.113c-0.397-0.474-0.693-1.021-0.899-1.647c-0.202-0.632-0.302-1.299-0.302-2.01
			c0-0.712,0.101-1.382,0.302-2.009c0.206-0.628,0.502-1.179,0.899-1.646c0.395-0.47,0.877-0.847,1.458-1.125
			c0.575-0.279,1.236-0.421,1.986-0.421C166.955,46.907,167.622,47.049,168.199,47.329 M164.703,48.284
			c-0.427,0.238-0.79,0.555-1.072,0.949c-0.286,0.393-0.506,0.841-0.649,1.343c-0.145,0.503-0.218,1.013-0.218,1.532
			c0,0.523,0.073,1.034,0.218,1.532c0.143,0.504,0.363,0.95,0.649,1.342c0.282,0.396,0.645,0.714,1.072,0.953
			c0.431,0.243,0.932,0.363,1.504,0.363c0.572,0,1.072-0.12,1.504-0.363c0.431-0.239,0.79-0.556,1.077-0.953
			c0.284-0.392,0.5-0.838,0.649-1.342c0.145-0.498,0.22-1.009,0.22-1.532c0-0.519-0.075-1.029-0.22-1.532
			c-0.149-0.502-0.365-0.949-0.649-1.343c-0.286-0.394-0.645-0.712-1.077-0.949c-0.431-0.244-0.932-0.363-1.504-0.363
			C165.634,47.921,165.134,48.04,164.703,48.284"/>
		<path class="st0" d="M173.973,47.194v1.657h0.061c0.31-0.609,0.73-1.085,1.248-1.427c0.51-0.343,1.167-0.516,1.966-0.516
			c0.645,0,1.236,0.161,1.76,0.479c0.53,0.314,0.881,0.795,1.058,1.448c0.294-0.652,0.726-1.133,1.298-1.448
			c0.569-0.318,1.179-0.479,1.827-0.479c2.169,0,3.258,1.15,3.258,3.449v6.666h-1.198v-6.609c0-0.812-0.175-1.433-0.516-1.857
			c-0.343-0.426-0.948-0.636-1.81-0.636c-0.524,0-0.952,0.094-1.298,0.292c-0.339,0.197-0.613,0.46-0.815,0.792
			c-0.206,0.326-0.349,0.708-0.429,1.131c-0.087,0.425-0.123,0.866-0.123,1.326v5.561h-1.202v-6.666c0-0.33-0.032-0.643-0.105-0.942
			c-0.072-0.299-0.183-0.563-0.341-0.781c-0.159-0.224-0.373-0.399-0.641-0.524c-0.264-0.126-0.591-0.189-0.97-0.189
			c-0.506,0-0.948,0.088-1.32,0.272c-0.379,0.19-0.684,0.441-0.917,0.765c-0.236,0.324-0.409,0.703-0.522,1.142
			c-0.115,0.438-0.175,0.914-0.175,1.437v5.485h-1.197v-9.829H173.973z"/>
		<path class="st0" d="M190.057,47.194v1.868h0.042c0.278-0.689,0.732-1.215,1.361-1.591c0.625-0.376,1.343-0.563,2.139-0.563
			c0.748,0,1.399,0.142,1.952,0.422c0.554,0.276,1.014,0.657,1.381,1.132c0.367,0.478,0.639,1.027,0.819,1.655
			c0.177,0.628,0.266,1.291,0.266,1.993c0,0.698-0.089,1.36-0.266,1.985c-0.179,0.63-0.452,1.186-0.819,1.659
			c-0.367,0.478-0.827,0.854-1.381,1.124c-0.552,0.271-1.204,0.408-1.952,0.408c-0.355,0-0.708-0.043-1.065-0.133
			c-0.359-0.089-0.683-0.223-0.99-0.396c-0.302-0.18-0.575-0.4-0.81-0.67c-0.232-0.264-0.417-0.577-0.544-0.932h-0.038v5.485h-1.199
			V47.194H190.057z M196.638,50.595c-0.119-0.502-0.311-0.948-0.569-1.341c-0.262-0.394-0.599-0.716-1.004-0.961
			c-0.403-0.25-0.891-0.374-1.466-0.374c-0.659,0-1.208,0.116-1.655,0.344c-0.443,0.228-0.802,0.528-1.064,0.912
			c-0.27,0.384-0.456,0.827-0.563,1.334c-0.107,0.506-0.165,1.042-0.165,1.602c0,0.505,0.065,1.011,0.184,1.512
			c0.117,0.504,0.319,0.949,0.589,1.343c0.274,0.394,0.631,0.713,1.068,0.964c0.436,0.248,0.976,0.367,1.607,0.367
			c0.575,0,1.062-0.119,1.466-0.367c0.405-0.251,0.742-0.57,1.004-0.964c0.258-0.394,0.45-0.839,0.569-1.343
			c0.121-0.501,0.179-1.007,0.179-1.512C196.817,51.6,196.759,51.098,196.638,50.595"/>
		<path class="st0" d="M200.465,48.719c0.201-0.417,0.48-0.762,0.828-1.027c0.349-0.267,0.76-0.465,1.228-0.592
			c0.468-0.127,0.99-0.191,1.563-0.191c0.433,0,0.861,0.043,1.296,0.127c0.431,0.079,0.816,0.237,1.161,0.465
			c0.343,0.229,0.621,0.547,0.839,0.963c0.214,0.413,0.322,0.948,0.322,1.605v5.222c0,0.484,0.234,0.722,0.702,0.722
			c0.141,0,0.27-0.023,0.383-0.076v1.009c-0.141,0.029-0.266,0.047-0.371,0.059c-0.109,0.01-0.242,0.019-0.407,0.019
			c-0.306,0-0.548-0.037-0.736-0.126c-0.184-0.083-0.327-0.198-0.425-0.351c-0.103-0.151-0.169-0.334-0.204-0.543
			c-0.028-0.209-0.048-0.44-0.048-0.697h-0.036c-0.216,0.321-0.434,0.602-0.655,0.851c-0.224,0.246-0.474,0.452-0.744,0.617
			c-0.276,0.166-0.585,0.291-0.934,0.382c-0.349,0.086-0.766,0.131-1.246,0.131c-0.46,0-0.887-0.051-1.286-0.16
			c-0.401-0.109-0.75-0.279-1.049-0.516c-0.298-0.232-0.532-0.533-0.704-0.894c-0.171-0.361-0.256-0.788-0.256-1.287
			c0-0.681,0.151-1.218,0.456-1.607c0.306-0.388,0.71-0.682,1.21-0.884c0.5-0.205,1.065-0.347,1.694-0.428
			c0.625-0.084,1.266-0.16,1.915-0.238c0.254-0.027,0.476-0.058,0.667-0.098c0.187-0.035,0.347-0.104,0.474-0.2
			c0.129-0.093,0.226-0.227,0.299-0.389c0.064-0.165,0.101-0.381,0.101-0.646c0-0.41-0.065-0.742-0.198-0.999
			c-0.133-0.263-0.316-0.469-0.552-0.618c-0.236-0.156-0.51-0.26-0.822-0.319c-0.307-0.057-0.641-0.083-0.996-0.083
			c-0.764,0-1.383,0.18-1.867,0.541c-0.484,0.36-0.738,0.941-0.762,1.742h-1.202C200.142,49.633,200.263,49.137,200.465,48.719
			 M206.465,51.652c-0.077,0.139-0.226,0.243-0.437,0.302c-0.216,0.064-0.405,0.113-0.571,0.134c-0.512,0.09-1.032,0.173-1.57,0.241
			c-0.542,0.069-1.034,0.174-1.478,0.314c-0.446,0.138-0.811,0.338-1.097,0.599c-0.282,0.261-0.425,0.63-0.425,1.115
			c0,0.302,0.058,0.573,0.179,0.807c0.121,0.239,0.282,0.442,0.488,0.611c0.198,0.172,0.435,0.302,0.702,0.39
			c0.266,0.09,0.54,0.131,0.819,0.131c0.456,0,0.897-0.07,1.314-0.208c0.423-0.137,0.782-0.342,1.097-0.609
			c0.306-0.264,0.556-0.589,0.742-0.972c0.181-0.379,0.274-0.814,0.274-1.296v-1.56H206.465z"/>
		<path class="st0" d="M211.731,47.194v1.697h0.036c0.226-0.598,0.635-1.076,1.218-1.436c0.589-0.363,1.226-0.546,1.923-0.546
			c0.688,0,1.258,0.089,1.722,0.267c0.468,0.18,0.835,0.429,1.113,0.754c0.282,0.325,0.48,0.718,0.595,1.186
			c0.113,0.473,0.169,0.999,0.169,1.582v6.326h-1.198v-6.131c0-0.422-0.038-0.816-0.111-1.172c-0.081-0.362-0.214-0.679-0.403-0.945
			c-0.19-0.267-0.448-0.474-0.774-0.629c-0.322-0.15-0.728-0.225-1.21-0.225c-0.48,0-0.907,0.083-1.286,0.253
			c-0.371,0.173-0.69,0.41-0.952,0.705c-0.258,0.3-0.46,0.655-0.609,1.068c-0.143,0.413-0.226,0.86-0.234,1.342v5.734h-1.202v-9.829
			H211.731z"/>
		<path class="st0" d="M221.166,47.194l3.238,8.38l3.028-8.38h1.202l-4.27,11.312c-0.173,0.418-0.337,0.763-0.492,1.04
			c-0.151,0.273-0.32,0.486-0.508,0.646c-0.181,0.157-0.399,0.273-0.645,0.344c-0.246,0.068-0.562,0.104-0.939,0.104
			c-0.244-0.013-0.431-0.025-0.565-0.029c-0.135-0.007-0.248-0.027-0.353-0.066v-1.01c0.139,0.025,0.276,0.049,0.409,0.069
			c0.133,0.018,0.27,0.029,0.411,0.029c0.266,0,0.484-0.039,0.657-0.12c0.169-0.073,0.319-0.178,0.448-0.312
			c0.125-0.133,0.234-0.293,0.32-0.486c0.091-0.191,0.186-0.397,0.288-0.627l0.415-1.104l-3.919-9.791H221.166z"/>
	</g>
</g>
<g>
	<path class="st2" d="M131.892,49.097h-0.456v1.98h0.528c0.609,0,0.833-0.495,0.833-1.056
		C132.798,49.316,132.4,49.097,131.892,49.097z"/>
	<path class="st2" d="M108.195,48.931c-0.494,0-0.714,0.331-0.714,0.826v4.705c0,0.493,0.22,0.826,0.714,0.826
		c0.496,0,0.722-0.333,0.722-0.826v-4.705C108.917,49.262,108.691,48.931,108.195,48.931z"/>
	<path class="st2" d="M99.433,49.291h-0.532v5.637h0.532c0.605,0,0.816-0.261,0.816-1.015v-3.604
		C100.25,49.552,100.038,49.291,99.433,49.291z"/>
	<path class="st2" d="M135.078,42.098h-51.05v6.98h6.427v6.263h-6.427v7.031h51.159c0,0,8.74,0.033,8.74-10.548
		C143.927,42.116,135.078,42.098,135.078,42.098z M103.592,53.736c0,2.242-0.954,3.284-3.256,3.284h-4.73v-9.805l0.012-0.014h4.718
		c2.302,0,3.256,1.045,3.256,3.286V53.736z M108.195,57.322c-3.23,0-4.107-1.183-4.107-5.214c0-4.029,0.877-5.214,4.107-5.214
		c3.234,0,4.113,1.185,4.113,5.214C112.308,56.139,111.429,57.322,108.195,57.322z M118.606,57.02h-4.369l-2.167-9.821h3.516
		l0.831,6.712h0.024l0.867-6.712h3.528L118.606,57.02z M127.501,49.535h-3.054v1.46h2.772v2.092h-2.772v1.593h3.054v2.341h-6.397
		v-9.821h6.397V49.535z M136.55,57.02h-3.307c-0.296,0-0.484-0.28-0.484-0.716v-2.162c0-0.839-0.234-1.168-0.855-1.168h-0.468v4.046
		h-3.343v-9.821h5.171c1.934,0,2.873,0.798,2.873,2.724c0,1.237-0.667,2.022-1.758,2.143v0.031c0.693,0.081,1.72,0.576,1.72,1.787
		v2.215c0,0.536,0.236,0.809,0.458,0.892L136.55,57.02z"/>
</g>
<g>
	<path class="st2" d="M145.872,60.55c0,1.016-0.825,1.822-1.812,1.822c-0.978,0-1.813-0.805-1.813-1.822
		c0-1.016,0.843-1.812,1.813-1.812C145.056,58.739,145.872,59.544,145.872,60.55z M142.463,60.55c0,0.901,0.724,1.611,1.597,1.611
		c0.881,0,1.597-0.719,1.597-1.611c0-0.858-0.696-1.596-1.597-1.596C143.187,58.954,142.463,59.673,142.463,60.55z M143.396,59.563
		h0.691c0.145,0,0.661,0,0.661,0.489c0,0.057,0,0.364-0.363,0.47c0.199,0.047,0.268,0.134,0.296,0.374
		c0.028,0.24,0.049,0.421,0.115,0.613h-0.278c-0.038-0.124-0.056-0.2-0.097-0.508c-0.028-0.296-0.105-0.374-0.421-0.374h-0.335
		v0.882h-0.27V59.563z M143.666,60.397h0.421c0.135,0,0.383,0,0.383-0.297c0-0.306-0.238-0.306-0.383-0.306h-0.421V60.397z"/>
</g>
</svg>
