<?xml version="1.0" encoding="UTF-8" standalone="no"?>
<svg
   xmlns:dc="http://purl.org/dc/elements/1.1/"
   xmlns:cc="http://creativecommons.org/ns#"
   xmlns:rdf="http://www.w3.org/1999/02/22-rdf-syntax-ns#"
   xmlns:svg="http://www.w3.org/2000/svg"
   xmlns="http://www.w3.org/2000/svg"
   viewBox="0 0 793.70135 728.37335"
   height="728.37335"
   width="793.70135"
   xml:space="preserve"
   id="svg2"
   version="1.1"><metadata
     id="metadata8"><rdf:RDF><cc:Work
         rdf:about=""><dc:format>image/svg+xml</dc:format><dc:type
           rdf:resource="http://purl.org/dc/dcmitype/StillImage" /></cc:Work></rdf:RDF></metadata><defs
     id="defs6"><clipPath
       id="clipPath26"
       clipPathUnits="userSpaceOnUse"><path
         id="path24"
         d="M 0,546.28 H 595.276 V 0 H 0 Z" /></clipPath></defs><g
     transform="matrix(1.3333333,0,0,-1.3333333,0,728.37333)"
     id="g10"><g
       transform="translate(43.8447,153.5075)"
       id="g12"><path
         id="path14"
         style="fill:#6a7174;fill-opacity:1;fill-rule:nonzero;stroke:none"
         d="M 0,0 H 47.287 V -13.299 H 19.21 V -24.108 H 43.192 V -36.605 H 19.21 V -61.896 H 0 Z" /></g><g
       transform="translate(120.8848,115.2136)"
       id="g16"><path
         id="path18"
         style="fill:#6a7174;fill-opacity:1;fill-rule:nonzero;stroke:none"
         d="M 0,0 -6.832,22.25 -13.592,0 Z m 3.968,-13.384 h -21.714 l -3.017,-10.218 h -19.529 l 23.264,61.896 H 3.834 L 27.093,-23.602 H 7.064 Z" /></g><g
       id="g20"><g
         clip-path="url(#clipPath26)"
         id="g22"><g
           transform="translate(144.2368,112.0886)"
           id="g28"><path
             id="path30"
             style="fill:#6a7174;fill-opacity:1;fill-rule:nonzero;stroke:none"
             d="m 0,0 18.197,1.141 c 0.394,-2.956 1.196,-5.208 2.407,-6.755 1.97,-2.506 4.785,-3.758 8.444,-3.758 2.73,0 4.834,0.639 6.312,1.92 1.477,1.281 2.216,2.766 2.216,4.455 0,1.603 -0.703,3.039 -2.111,4.307 -1.407,1.266 -4.673,2.461 -9.795,3.588 -8.388,1.885 -14.369,4.391 -17.943,7.516 -3.603,3.124 -5.405,7.107 -5.405,11.948 0,3.18 0.922,6.185 2.766,9.014 1.843,2.829 4.616,5.052 8.317,6.671 3.701,1.618 8.775,2.428 15.22,2.428 7.91,0 13.94,-1.472 18.092,-4.412 4.152,-2.942 6.621,-7.621 7.41,-14.039 L 36.099,22.969 c -0.479,2.786 -1.485,4.813 -3.019,6.079 -1.534,1.267 -3.652,1.9 -6.354,1.9 -2.224,0 -3.899,-0.471 -5.025,-1.414 -1.125,-0.944 -1.688,-2.09 -1.688,-3.441 0,-0.986 0.465,-1.872 1.393,-2.66 0.9,-0.817 3.04,-1.577 6.418,-2.28 8.359,-1.801 14.347,-3.624 17.964,-5.467 3.617,-1.844 6.249,-4.131 7.896,-6.862 1.646,-2.73 2.469,-5.784 2.469,-9.162 0,-3.968 -1.097,-7.627 -3.293,-10.976 -2.195,-3.351 -5.263,-5.891 -9.204,-7.622 -3.941,-1.731 -8.908,-2.596 -14.904,-2.596 -10.527,0 -17.817,2.026 -21.87,6.08 C 2.829,-11.399 0.535,-6.248 0,0" /></g><g
           transform="translate(220.251,122.4333)"
           id="g32"><path
             id="path34"
             style="fill:#6a7174;fill-opacity:1;fill-rule:nonzero;stroke:none"
             d="m 0,0 c 0,-6.249 1.161,-10.738 3.483,-13.469 2.322,-2.73 5.481,-4.095 9.478,-4.095 4.11,0 7.29,1.336 9.542,4.01 2.252,2.674 3.378,7.474 3.378,14.399 0,5.826 -1.175,10.083 -3.526,12.771 -2.35,2.688 -5.538,4.032 -9.563,4.032 -3.856,0 -6.952,-1.365 -9.288,-4.095 C 1.167,10.822 0,6.305 0,0 m -19.126,0.084 c 0,10.105 2.814,17.972 8.444,23.602 5.629,5.629 13.468,8.444 23.517,8.444 10.302,0 18.239,-2.765 23.812,-8.297 5.574,-5.53 8.36,-13.278 8.36,-23.242 0,-7.235 -1.218,-13.167 -3.653,-17.796 -2.435,-4.63 -5.953,-8.233 -10.555,-10.809 -4.602,-2.575 -10.337,-3.863 -17.204,-3.863 -6.981,0 -12.758,1.112 -17.332,3.335 -4.574,2.224 -8.283,5.743 -11.125,10.556 -2.843,4.813 -4.264,10.836 -4.264,18.07" /></g><g
           transform="translate(276.4009,111.4978)"
           id="g36"><path
             id="path38"
             style="fill:#6a7174;fill-opacity:1;fill-rule:nonzero;stroke:none"
             d="m 0,0 7.726,0.676 c 0.366,-3.098 1.218,-5.637 2.555,-7.621 1.337,-1.985 3.412,-3.589 6.227,-4.813 2.814,-1.225 5.98,-1.838 9.499,-1.838 3.124,0 5.883,0.465 8.276,1.394 2.391,0.929 4.173,2.202 5.341,3.821 1.168,1.618 1.751,3.384 1.751,5.299 0,1.942 -0.563,3.637 -1.688,5.088 -1.127,1.448 -2.983,2.666 -5.573,3.651 -1.66,0.648 -5.334,1.654 -11.02,3.02 -5.685,1.365 -9.668,2.652 -11.948,3.863 -2.956,1.547 -5.158,3.469 -6.607,5.763 -1.45,2.294 -2.175,4.862 -2.175,7.705 0,3.124 0.887,6.045 2.66,8.761 1.773,2.716 4.363,4.777 7.768,6.186 3.406,1.406 7.192,2.11 11.358,2.11 4.588,0 8.634,-0.738 12.139,-2.216 3.503,-1.478 6.199,-3.652 8.085,-6.523 1.884,-2.871 2.898,-6.122 3.039,-9.753 L 39.56,23.982 c -0.422,3.912 -1.852,6.867 -4.285,8.866 -2.436,1.998 -6.03,2.998 -10.788,2.998 -4.953,0 -8.563,-0.908 -10.828,-2.723 -2.267,-1.816 -3.4,-4.005 -3.4,-6.565 0,-2.225 0.803,-4.054 2.407,-5.489 1.576,-1.436 5.692,-2.907 12.35,-4.412 6.656,-1.507 11.223,-2.823 13.699,-3.948 3.603,-1.661 6.263,-3.765 7.981,-6.313 1.717,-2.547 2.575,-5.482 2.575,-8.802 0,-3.294 -0.943,-6.398 -2.829,-9.31 -1.886,-2.914 -4.596,-5.18 -8.127,-6.798 -3.533,-1.618 -7.509,-2.427 -11.928,-2.427 -5.601,0 -10.294,0.816 -14.08,2.449 -3.786,1.632 -6.755,4.088 -8.909,7.367 C 1.246,-7.847 0.112,-4.138 0,0" /></g><g
           transform="translate(330.1211,91.612)"
           id="g40"><path
             id="path42"
             style="fill:#6a7174;fill-opacity:1;fill-rule:nonzero;stroke:none"
             d="M 0,0 V 61.896 H 12.328 L 26.979,18.07 c 1.351,-4.082 2.336,-7.135 2.956,-9.161 0.703,2.25 1.8,5.558 3.294,9.921 L 48.047,61.896 H 59.066 V 0 H 51.172 V 51.805 L 33.186,0 H 25.797 L 7.896,52.691 V 0 Z" /></g><g
           transform="translate(406.9805,117.029)"
           id="g44"><path
             id="path46"
             style="fill:#6a7174;fill-opacity:1;fill-rule:nonzero;stroke:none"
             d="M 0,0 H 20.983 L 14.524,17.142 C 12.554,22.349 11.09,26.626 10.133,29.977 9.345,26.008 8.232,22.067 6.798,18.155 Z M -17.859,-25.417 5.91,36.479 h 8.824 L 40.067,-25.417 H 30.736 L 23.517,-6.671 H -2.364 l -6.798,-18.746 z" /></g><g
           transform="translate(455.4238,126.1906)"
           id="g48"><path
             id="path50"
             style="fill:#6a7174;fill-opacity:1;fill-rule:nonzero;stroke:none"
             d="m 0,0 h 17.605 c 3.744,0 6.671,0.387 8.783,1.161 2.111,0.774 3.716,2.013 4.812,3.716 1.099,1.703 1.648,3.553 1.648,5.552 0,2.927 -1.064,5.333 -3.189,7.219 -2.125,1.886 -5.481,2.829 -10.068,2.829 H 0 Z m -8.191,-34.579 v 61.896 h 27.443 c 5.517,0 9.711,-0.556 12.582,-1.668 2.871,-1.112 5.164,-3.075 6.882,-5.89 1.717,-2.814 2.575,-5.925 2.575,-9.33 0,-4.391 -1.421,-8.093 -4.264,-11.104 -2.843,-3.013 -7.234,-4.926 -13.173,-5.742 2.167,-1.042 3.814,-2.07 4.941,-3.083 2.392,-2.196 4.657,-4.94 6.797,-8.233 l 10.765,-16.846 h -10.3 l -8.191,12.877 c -2.393,3.716 -4.363,6.558 -5.912,8.529 -1.548,1.97 -2.934,3.349 -4.158,4.137 -1.225,0.788 -2.47,1.337 -3.736,1.648 -0.929,0.196 -2.45,0.295 -4.56,0.295 H 0 v -27.486 z" /></g><g
           transform="translate(517.252,91.612)"
           id="g52"><path
             id="path54"
             style="fill:#6a7174;fill-opacity:1;fill-rule:nonzero;stroke:none"
             d="m 0,0 v 54.591 h -20.393 v 7.305 H 28.668 V 54.591 H 8.19 L 8.19,0 Z" /></g><g
           transform="translate(290.2163,427.9001)"
           id="g56"><path
             id="path58"
             style="fill:#3871c1;fill-opacity:1;fill-rule:nonzero;stroke:none"
             d="M 0,0 C 0,0 -2.149,66.315 97.81,73.296 H 257.961 V 0 Z" /></g><g
           transform="translate(290.2129,374.3825)"
           id="g60"><path
             id="path62"
             style="fill:#3871c1;fill-opacity:1;fill-rule:nonzero;stroke:none"
             d="m 0,0 h 164.454 c 0,0 85.986,8.144 93.511,-70.969 0,0 31.17,-116.343 -88.137,-126.814 h -303.609 v 75.623 h 303.609 c 0,0 18.273,-0.926 23.647,23.388 0,0 1.074,27.803 -29.021,26.64 C 164.454,-72.132 8.595,-98.891 0,0" /></g><path
           id="path64"
           style="fill:#3586a7;fill-opacity:1;fill-rule:nonzero;stroke:none"
           d="M 266.57,427.9 H 44.32 v 73.296 h 222.25 z" /><g
           transform="translate(266.5703,374.6198)"
           id="g66"><path
             id="path68"
             style="fill:#3586a7;fill-opacity:1;fill-rule:nonzero;stroke:none"
             d="m 0,0 h -222.25 v -198.02 h 67.473 l 1.075,126.813 153.702,0 z" /></g><g
           transform="translate(51.8169,49.6472)"
           id="g70"><path
             id="path72"
             style="fill:#151110;fill-opacity:1;fill-rule:nonzero;stroke:none"
             d="m 0,0 v 19.453 h -6.865 v 2.604 H 9.651 V 19.453 H 2.758 L 2.758,0 Z" /></g><g
           transform="translate(64.3818,49.6472)"
           id="g74"><path
             id="path76"
             style="fill:#151110;fill-opacity:1;fill-rule:nonzero;stroke:none"
             d="m 0,0 v 22.057 h 2.757 v -9.058 h 10.831 v 9.058 h 2.757 V 0 H 13.588 V 10.396 H 2.757 L 2.757,0 Z" /></g><path
           id="path78"
           style="fill:#151110;fill-opacity:1;fill-rule:nonzero;stroke:none"
           d="m 85.787,71.704 h 2.757 V 49.647 h -2.757 z" /><g
           transform="translate(93.3774,49.6472)"
           id="g80"><path
             id="path82"
             style="fill:#151110;fill-opacity:1;fill-rule:nonzero;stroke:none"
             d="M 0,0 V 22.057 H 2.828 L 13.772,4.739 v 17.318 h 2.644 V 0 H 13.588 L 2.644,17.333 V 0 Z" /></g><g
           transform="translate(114.314,49.6472)"
           id="g84"><path
             id="path86"
             style="fill:#151110;fill-opacity:1;fill-rule:nonzero;stroke:none"
             d="M 0,0 V 22.057 H 2.757 V 11.118 l 10.347,10.939 h 3.739 L 8.102,13.12 17.226,0 H 13.588 L 6.168,11.163 2.757,7.644 V 0 Z" /></g><g
           transform="translate(140.9922,56.7341)"
           id="g88"><path
             id="path90"
             style="fill:#151110;fill-opacity:1;fill-rule:nonzero;stroke:none"
             d="m 0,0 2.601,0.24 c 0.123,-1.103 0.409,-2.009 0.86,-2.716 0.45,-0.707 1.149,-1.278 2.097,-1.714 0.946,-0.437 2.013,-0.656 3.197,-0.656 1.052,0 1.98,0.166 2.786,0.497 0.805,0.331 1.405,0.785 1.798,1.362 0.393,0.576 0.59,1.206 0.59,1.887 0,0.693 -0.19,1.297 -0.569,1.814 C 12.981,1.23 12.356,1.664 11.484,2.016 10.925,2.246 9.688,2.605 7.774,3.091 5.86,3.578 4.52,4.037 3.752,4.468 2.757,5.02 2.016,5.704 1.528,6.521 1.04,7.339 0.796,8.254 0.796,9.267 c 0,1.114 0.298,2.154 0.895,3.123 0.597,0.967 1.469,1.702 2.616,2.204 1.146,0.501 2.42,0.752 3.823,0.752 1.544,0 2.907,-0.263 4.086,-0.789 1.18,-0.528 2.087,-1.303 2.722,-2.326 0.635,-1.023 0.976,-2.181 1.023,-3.475 L 13.317,8.545 c -0.141,1.394 -0.622,2.447 -1.442,3.16 -0.819,0.711 -2.03,1.067 -3.631,1.067 -1.668,0 -2.883,-0.323 -3.646,-0.969 -0.763,-0.648 -1.144,-1.428 -1.144,-2.339 0,-0.793 0.27,-1.445 0.81,-1.957 0.53,-0.512 1.916,-1.036 4.157,-1.572 2.241,-0.537 3.778,-1.006 4.613,-1.408 1.212,-0.59 2.108,-1.341 2.686,-2.249 0.578,-0.908 0.867,-1.953 0.867,-3.136 0,-1.174 -0.317,-2.28 -0.952,-3.318 C 15,-5.214 14.087,-6.021 12.898,-6.599 11.709,-7.175 10.371,-7.463 8.883,-7.463 c -1.885,0 -3.466,0.29 -4.74,0.872 C 2.868,-6.009 1.869,-5.134 1.144,-3.965 0.419,-2.797 0.038,-1.476 0,0" /></g><g
           transform="translate(161.2607,49.6472)"
           id="g92"><path
             id="path94"
             style="fill:#151110;fill-opacity:1;fill-rule:nonzero;stroke:none"
             d="M 0,0 V 22.057 H 4.15 L 9.083,6.439 c 0.454,-1.455 0.786,-2.543 0.994,-3.264 0.237,0.802 0.607,1.98 1.109,3.535 l 4.989,15.347 h 3.71 V 0 H 17.227 V 18.461 L 11.172,0 H 8.684 L 2.658,18.776 V 0 Z" /></g><g
           transform="translate(189.3179,58.7048)"
           id="g96"><path
             id="path98"
             style="fill:#151110;fill-opacity:1;fill-rule:nonzero;stroke:none"
             d="M 0,0 H 7.064 L 4.889,6.107 C 4.226,7.964 3.733,9.487 3.411,10.682 3.146,9.268 2.772,7.863 2.288,6.469 Z M -6.012,-9.058 1.99,12.999 h 2.97 l 8.528,-22.057 h -3.14 l -2.431,6.68 h -8.713 l -2.288,-6.68 z" /></g><g
           transform="translate(207.8096,61.9695)"
           id="g100"><path
             id="path102"
             style="fill:#151110;fill-opacity:1;fill-rule:nonzero;stroke:none"
             d="m 0,0 h 5.927 c 1.26,0 2.246,0.138 2.956,0.414 0.711,0.275 1.251,0.716 1.62,1.323 0.37,0.607 0.555,1.267 0.555,1.979 0,1.043 -0.358,1.9 -1.073,2.573 C 9.269,6.961 8.14,7.297 6.595,7.297 H 0 Z M -2.757,-12.322 V 9.734 h 9.238 c 1.857,0 3.269,-0.198 4.236,-0.593 0.966,-0.398 1.739,-1.097 2.317,-2.1 0.577,-1.003 0.867,-2.111 0.867,-3.325 0,-1.565 -0.479,-2.884 -1.436,-3.956 -0.957,-1.074 -2.435,-1.757 -4.435,-2.047 0.73,-0.371 1.284,-0.737 1.663,-1.099 0.806,-0.782 1.569,-1.76 2.289,-2.933 l 3.624,-6.003 H 12.138 L 9.381,-7.733 C 8.575,-6.41 7.912,-5.396 7.391,-4.694 6.87,-3.992 6.403,-3.501 5.991,-3.22 5.579,-2.939 5.159,-2.743 4.733,-2.633 4.42,-2.563 3.908,-2.528 3.198,-2.528 H 0 v -9.794 z" /></g><g
           transform="translate(230.8071,49.6472)"
           id="g104"><path
             id="path106"
             style="fill:#151110;fill-opacity:1;fill-rule:nonzero;stroke:none"
             d="m 0,0 v 19.453 h -6.865 v 2.604 H 9.651 V 19.453 H 2.757 L 2.757,0 Z" /></g><path
           id="path108"
           style="fill:#151110;fill-opacity:1;fill-rule:nonzero;stroke:none"
           d="m 249.526,58.99 h 7.86 v -2.724 h -7.86 z" /><g
           transform="translate(273.4043,49.6472)"
           id="g110"><path
             id="path112"
             style="fill:#151110;fill-opacity:1;fill-rule:nonzero;stroke:none"
             d="m 0,0 v 19.453 h -6.865 v 2.604 H 9.651 V 19.453 H 2.758 L 2.758,0 Z" /></g><g
           transform="translate(285.9692,49.6472)"
           id="g114"><path
             id="path116"
             style="fill:#151110;fill-opacity:1;fill-rule:nonzero;stroke:none"
             d="m 0,0 v 22.057 h 2.757 v -9.058 h 10.83 v 9.058 h 2.758 V 0 H 13.587 V 10.396 H 2.757 L 2.757,0 Z" /></g><path
           id="path118"
           style="fill:#151110;fill-opacity:1;fill-rule:nonzero;stroke:none"
           d="m 307.374,71.704 h 2.758 V 49.647 h -2.758 z" /><g
           transform="translate(314.9639,49.6472)"
           id="g120"><path
             id="path122"
             style="fill:#151110;fill-opacity:1;fill-rule:nonzero;stroke:none"
             d="M 0,0 V 22.057 H 2.828 L 13.772,4.739 v 17.318 h 2.645 V 0 H 13.589 L 2.644,17.333 V 0 Z" /></g><g
           transform="translate(335.9004,49.6472)"
           id="g124"><path
             id="path126"
             style="fill:#151110;fill-opacity:1;fill-rule:nonzero;stroke:none"
             d="M 0,0 V 22.057 H 2.757 V 11.118 l 10.348,10.939 h 3.739 L 8.103,13.12 17.228,0 H 13.589 L 6.169,11.163 2.757,7.644 V 0 Z" /></g><g
           transform="translate(366.3164,61.9695)"
           id="g128"><path
             id="path130"
             style="fill:#151110;fill-opacity:1;fill-rule:nonzero;stroke:none"
             d="m 0,0 h 5.928 c 1.259,0 2.246,0.138 2.957,0.414 0.71,0.275 1.25,0.716 1.62,1.323 0.369,0.607 0.554,1.267 0.554,1.979 0,1.043 -0.358,1.9 -1.073,2.573 C 9.271,6.961 8.141,7.297 6.596,7.297 H 0 Z M -2.757,-12.322 V 9.734 h 9.239 c 1.857,0 3.269,-0.198 4.236,-0.593 0.966,-0.398 1.739,-1.097 2.316,-2.1 0.578,-1.003 0.867,-2.111 0.867,-3.325 0,-1.565 -0.478,-2.884 -1.435,-3.956 -0.957,-1.074 -2.436,-1.757 -4.435,-2.047 0.73,-0.371 1.283,-0.737 1.663,-1.099 0.806,-0.782 1.568,-1.76 2.288,-2.933 l 3.625,-6.003 H 12.139 L 9.381,-7.733 C 8.576,-6.41 7.913,-5.396 7.392,-4.694 6.871,-3.992 6.403,-3.501 5.992,-3.22 5.579,-2.939 5.16,-2.743 4.734,-2.633 4.421,-2.563 3.909,-2.528 3.199,-2.528 H 0 v -9.794 z" /></g><g
           transform="translate(384.5957,49.6472)"
           id="g132"><path
             id="path134"
             style="fill:#151110;fill-opacity:1;fill-rule:nonzero;stroke:none"
             d="M 0,0 V 22.057 H 15.066 V 19.453 H 2.757 V 12.698 H 14.284 V 10.11 H 2.757 V 2.604 H 15.55 V 0 Z" /></g><g
           transform="translate(409.9102,49.6472)"
           id="g136"><path
             id="path138"
             style="fill:#151110;fill-opacity:1;fill-rule:nonzero;stroke:none"
             d="m 0,0 -8.073,22.057 h 2.984 L 0.326,6.033 C 0.763,4.749 1.128,3.545 1.422,2.423 1.744,3.626 2.118,4.829 2.544,6.033 l 5.629,16.024 h 2.814 L 2.828,0 Z" /></g><g
           transform="translate(425.375,60.3445)"
           id="g140"><path
             id="path142"
             style="fill:#151110;fill-opacity:1;fill-rule:nonzero;stroke:none"
             d="m 0,0 c 0,-2.658 0.675,-4.752 2.025,-6.281 1.35,-1.531 3.044,-2.295 5.081,-2.295 2.076,0 3.783,0.772 5.124,2.317 1.341,1.545 2.011,3.737 2.011,6.574 0,1.796 -0.286,3.364 -0.859,4.703 C 12.808,6.357 11.97,7.395 10.865,8.132 9.762,8.869 8.522,9.237 7.149,9.237 5.197,9.237 3.518,8.527 2.11,7.109 0.703,5.689 0,3.319 0,0 m -2.843,0.045 c 0,3.661 0.929,6.527 2.786,8.599 1.857,2.071 4.254,3.107 7.192,3.107 1.924,0 3.657,-0.487 5.202,-1.46 1.544,-0.973 2.722,-2.33 3.532,-4.069 0.81,-1.742 1.216,-3.715 1.216,-5.921 0,-2.238 -0.427,-4.238 -1.28,-6.003 -0.853,-1.766 -2.061,-3.102 -3.624,-4.01 -1.564,-0.907 -3.25,-1.361 -5.06,-1.361 -1.962,0 -3.715,0.501 -5.259,1.504 -1.546,1.003 -2.716,2.372 -3.51,4.107 -0.797,1.735 -1.195,3.571 -1.195,5.507" /></g><g
           transform="translate(445.8994,49.6472)"
           id="g144"><path
             id="path146"
             style="fill:#151110;fill-opacity:1;fill-rule:nonzero;stroke:none"
             d="M 0,0 V 22.057 H 2.757 V 2.604 H 13.02 V 0 Z" /></g><g
           transform="translate(475.875,71.7038)"
           id="g148"><path
             id="path150"
             style="fill:#151110;fill-opacity:1;fill-rule:nonzero;stroke:none"
             d="m 0,0 h 2.757 v -12.743 c 0,-2.218 -0.236,-3.978 -0.711,-5.281 -0.473,-1.304 -1.328,-2.365 -2.566,-3.183 -1.236,-0.816 -2.859,-1.226 -4.868,-1.226 -1.952,0 -3.549,0.357 -4.789,1.068 -1.242,0.713 -2.128,1.743 -2.658,3.093 -0.531,1.348 -0.796,3.191 -0.796,5.529 V 0 h 2.757 v -12.729 c 0,-1.916 0.169,-3.327 0.506,-4.235 0.335,-0.908 0.913,-1.607 1.733,-2.098 0.82,-0.492 1.822,-0.739 3.007,-0.739 2.026,0 3.473,0.488 4.334,1.46 0.862,0.973 1.294,2.844 1.294,5.612 z" /></g><g
           transform="translate(488.5244,49.6472)"
           id="g152"><path
             id="path154"
             style="fill:#151110;fill-opacity:1;fill-rule:nonzero;stroke:none"
             d="m 0,0 v 19.453 h -6.864 v 2.604 H 9.651 V 19.453 H 2.759 L 2.759,0 Z" /></g><path
           id="path156"
           style="fill:#151110;fill-opacity:1;fill-rule:nonzero;stroke:none"
           d="m 501.474,71.704 h 2.757 V 49.647 h -2.757 z" /><g
           transform="translate(511.0957,60.3445)"
           id="g158"><path
             id="path160"
             style="fill:#151110;fill-opacity:1;fill-rule:nonzero;stroke:none"
             d="m 0,0 c 0,-2.658 0.675,-4.752 2.025,-6.281 1.35,-1.531 3.044,-2.295 5.081,-2.295 2.076,0 3.784,0.772 5.124,2.317 1.341,1.545 2.011,3.737 2.011,6.574 0,1.796 -0.286,3.364 -0.859,4.703 C 12.809,6.357 11.97,7.395 10.865,8.132 9.762,8.869 8.523,9.237 7.149,9.237 5.197,9.237 3.518,8.527 2.11,7.109 0.703,5.689 0,3.319 0,0 m -2.843,0.045 c 0,3.661 0.929,6.527 2.786,8.599 1.858,2.071 4.254,3.107 7.192,3.107 1.924,0 3.658,-0.487 5.202,-1.46 1.544,-0.973 2.722,-2.33 3.532,-4.069 0.81,-1.742 1.216,-3.715 1.216,-5.921 0,-2.238 -0.427,-4.238 -1.28,-6.003 -0.853,-1.766 -2.061,-3.102 -3.624,-4.01 -1.564,-0.907 -3.25,-1.361 -5.06,-1.361 -1.962,0 -3.715,0.501 -5.259,1.504 -1.546,1.003 -2.716,2.372 -3.51,4.107 -0.797,1.735 -1.195,3.571 -1.195,5.507" /></g><g
           transform="translate(531.7051,49.6472)"
           id="g162"><path
             id="path164"
             style="fill:#151110;fill-opacity:1;fill-rule:nonzero;stroke:none"
             d="M 0,0 V 22.057 H 2.828 L 13.772,4.739 v 17.318 h 2.644 V 0 H 13.589 L 2.644,17.333 V 0 Z" /></g></g></g></g></svg>